REM DIRINDEX 1\2\4\8,1\2\4\9,1\2\4\10,1\2\5\11,1\2\5\12,1\2\5\13,1\2\5\14,1\2\5\15,1\3\6\16,1\3\6\17,1\3\6\18,1\3\7\19,1\3\7\20,1\3\7\21,1\3\7\22,1\3\7\23
REM DIRNAME "folder01","folder02","folder03","folder04","folder05","folder06","folder07","folder08","folder09","folder10","folder11","folder12","folder13","folder14","folder15","folder16","folder17","folder18","folder19","folder20","folder21","folder22","folder23"
TITLE ""
FILE "LR_black_phrase_B08.mp3" MP3
  TRACK 01 AUDIO
    TITLE "0:"
    INDEX 01 00:00:00
  TRACK 02 AUDIO
    TITLE "19:cjc171_13551"
    INDEX 01 00:00:14
  TRACK 03 AUDIO
    TITLE "0:"
    INDEX 01 00:01:31
  TRACK 04 AUDIO
    TITLE "20:cjc171_13552"
    INDEX 01 00:01:70
  TRACK 05 AUDIO
    TITLE "0:"
    INDEX 01 00:03:62
  TRACK 06 AUDIO
    TITLE "21:cjc171_13553"
    INDEX 01 00:04:59
  TRACK 07 AUDIO
    TITLE "0:"
    INDEX 01 00:06:44
  TRACK 08 AUDIO
    TITLE "22:cjc171_13554"
    INDEX 01 00:07:08
  TRACK 09 AUDIO
    TITLE "0:"
    INDEX 01 00:09:05
  TRACK 10 AUDIO
    TITLE "23:cjc171_13555"
    INDEX 01 00:09:35
  TRACK 11 AUDIO
    TITLE "0:"
    INDEX 01 00:11:34
  TRACK 12 AUDIO
    TITLE "19:cjc171_13556"
    INDEX 01 00:12:37
  TRACK 13 AUDIO
    TITLE "0:"
    INDEX 01 00:13:48
  TRACK 14 AUDIO
    TITLE "20:cjc171_13557"
    INDEX 01 00:14:10
  TRACK 15 AUDIO
    TITLE "0:"
    INDEX 01 00:16:52
  TRACK 16 AUDIO
    TITLE "21:cjc171_13558"
    INDEX 01 00:17:50
  TRACK 17 AUDIO
    TITLE "0:"
    INDEX 01 00:20:15
  TRACK 18 AUDIO
    TITLE "22:cjc171_13559"
    INDEX 01 00:20:54
  TRACK 19 AUDIO
    TITLE "0:"
    INDEX 01 00:23:07
  TRACK 20 AUDIO
    TITLE "23:cjc171_13560"
    INDEX 01 00:23:37
  TRACK 21 AUDIO
    TITLE "0:"
    INDEX 01 00:25:65
  TRACK 22 AUDIO
    TITLE "19:cjc171_13561"
    INDEX 01 00:26:70
  TRACK 23 AUDIO
    TITLE "0:"
    INDEX 01 00:28:14
  TRACK 24 AUDIO
    TITLE "20:cjc171_13562"
    INDEX 01 00:28:58
  TRACK 25 AUDIO
    TITLE "0:"
    INDEX 01 00:31:36
  TRACK 26 AUDIO
    TITLE "21:cjc171_13563"
    INDEX 01 00:32:36
  TRACK 27 AUDIO
    TITLE "0:"
    INDEX 01 00:34:50
  TRACK 28 AUDIO
    TITLE "22:cjc171_13564"
    INDEX 01 00:35:13
  TRACK 29 AUDIO
    TITLE "0:"
    INDEX 01 00:37:43
  TRACK 30 AUDIO
    TITLE "23:cjc171_13565"
    INDEX 01 00:37:72
  TRACK 31 AUDIO
    TITLE "0:"
    INDEX 01 00:40:29
  TRACK 32 AUDIO
    TITLE "19:cjc171_13566"
    INDEX 01 00:41:25
  TRACK 33 AUDIO
    TITLE "0:"
    INDEX 01 00:42:44
  TRACK 34 AUDIO
    TITLE "20:cjc171_13567"
    INDEX 01 00:43:04
  TRACK 35 AUDIO
    TITLE "0:"
    INDEX 01 00:46:63
  TRACK 36 AUDIO
    TITLE "21:cjc171_13568"
    INDEX 01 00:47:65
  TRACK 37 AUDIO
    TITLE "0:"
    INDEX 01 00:50:67
  TRACK 38 AUDIO
    TITLE "22:cjc171_13569"
    INDEX 01 00:51:27
  TRACK 39 AUDIO
    TITLE "0:"
    INDEX 01 00:53:63
  TRACK 40 AUDIO
    TITLE "23:cjc171_13570"
    INDEX 01 00:54:10
  TRACK 41 AUDIO
    TITLE "0:"
    INDEX 01 00:56:46
  TRACK 42 AUDIO
    TITLE "19:cjc171_13571"
    INDEX 01 00:57:42
  TRACK 43 AUDIO
    TITLE "0:"
    INDEX 01 00:58:57
  TRACK 44 AUDIO
    TITLE "20:cjc171_13572"
    INDEX 01 00:59:17
  TRACK 45 AUDIO
    TITLE "0:"
    INDEX 01 01:00:42
  TRACK 46 AUDIO
    TITLE "21:cjc171_13573"
    INDEX 01 01:01:45
  TRACK 47 AUDIO
    TITLE "0:"
    INDEX 01 01:03:03
  TRACK 48 AUDIO
    TITLE "22:cjc171_13574"
    INDEX 01 01:03:38
  TRACK 49 AUDIO
    TITLE "0:"
    INDEX 01 01:05:10
  TRACK 50 AUDIO
    TITLE "23:cjc171_13575"
    INDEX 01 01:05:31
  TRACK 51 AUDIO
    TITLE "0:"
    INDEX 01 01:07:03
  TRACK 52 AUDIO
    TITLE "19:cjc171_13576"
    INDEX 01 01:07:71
  TRACK 53 AUDIO
    TITLE "0:"
    INDEX 01 01:08:69
  TRACK 54 AUDIO
    TITLE "20:cjc171_13577"
    INDEX 01 01:09:29
  TRACK 55 AUDIO
    TITLE "0:"
    INDEX 01 01:11:40
  TRACK 56 AUDIO
    TITLE "21:cjc171_13578"
    INDEX 01 01:12:37
  TRACK 57 AUDIO
    TITLE "0:"
    INDEX 01 01:14:67
  TRACK 58 AUDIO
    TITLE "22:cjc171_13579"
    INDEX 01 01:15:32
  TRACK 59 AUDIO
    TITLE "0:"
    INDEX 01 01:17:38
  TRACK 60 AUDIO
    TITLE "23:cjc171_13580"
    INDEX 01 01:17:64
  TRACK 61 AUDIO
    TITLE "0:"
    INDEX 01 01:19:71
  TRACK 62 AUDIO
    TITLE "19:cjc171_13581"
    INDEX 01 01:20:72
  TRACK 63 AUDIO
    TITLE "0:"
    INDEX 01 01:22:12
  TRACK 64 AUDIO
    TITLE "20:cjc171_13582"
    INDEX 01 01:22:47
  TRACK 65 AUDIO
    TITLE "0:"
    INDEX 01 01:25:22
  TRACK 66 AUDIO
    TITLE "21:cjc171_13583"
    INDEX 01 01:26:22
  TRACK 67 AUDIO
    TITLE "0:"
    INDEX 01 01:28:58
  TRACK 68 AUDIO
    TITLE "22:cjc171_13584"
    INDEX 01 01:29:24
  TRACK 69 AUDIO
    TITLE "0:"
    INDEX 01 01:31:37
  TRACK 70 AUDIO
    TITLE "23:cjc171_13585"
    INDEX 01 01:31:68
  TRACK 71 AUDIO
    TITLE "0:"
    INDEX 01 01:34:04
  TRACK 72 AUDIO
    TITLE "19:cjc171_13586"
    INDEX 01 01:35:09
  TRACK 73 AUDIO
    TITLE "0:"
    INDEX 01 01:36:38
  TRACK 74 AUDIO
    TITLE "20:cjc171_13587"
    INDEX 01 01:37:04
  TRACK 75 AUDIO
    TITLE "0:"
    INDEX 01 01:39:48
  TRACK 76 AUDIO
    TITLE "21:cjc171_13588"
    INDEX 01 01:40:47
  TRACK 77 AUDIO
    TITLE "0:"
    INDEX 01 01:42:60
  TRACK 78 AUDIO
    TITLE "22:cjc171_13589"
    INDEX 01 01:43:24
  TRACK 79 AUDIO
    TITLE "0:"
    INDEX 01 01:45:66
  TRACK 80 AUDIO
    TITLE "23:cjc171_13590"
    INDEX 01 01:46:22
  TRACK 81 AUDIO
    TITLE "0:"
    INDEX 01 01:48:64
  TRACK 82 AUDIO
    TITLE "19:cjc171_13591"
    INDEX 01 01:49:70
  TRACK 83 AUDIO
    TITLE "0:"
    INDEX 01 01:51:18
  TRACK 84 AUDIO
    TITLE "20:cjc171_13592"
    INDEX 01 01:51:67
  TRACK 85 AUDIO
    TITLE "0:"
    INDEX 01 01:53:75
  TRACK 86 AUDIO
    TITLE "21:cjc171_13593"
    INDEX 01 01:54:75
  TRACK 87 AUDIO
    TITLE "0:"
    INDEX 01 01:57:24
  TRACK 88 AUDIO
    TITLE "22:cjc171_13594"
    INDEX 01 01:57:65
  TRACK 89 AUDIO
    TITLE "0:"
    INDEX 01 02:00:42
  TRACK 90 AUDIO
    TITLE "23:cjc171_13595"
    INDEX 01 02:00:72
  TRACK 91 AUDIO
    TITLE "0:"
    INDEX 01 02:03:50
  TRACK 92 AUDIO
    TITLE "19:cjc171_13596"
    INDEX 01 02:04:50
  TRACK 93 AUDIO
    TITLE "0:"
    INDEX 01 02:05:59
  TRACK 94 AUDIO
    TITLE "20:cjc171_13597"
    INDEX 01 02:06:19
  TRACK 95 AUDIO
    TITLE "0:"
    INDEX 01 02:09:39
  TRACK 96 AUDIO
    TITLE "21:cjc171_13598"
    INDEX 01 02:10:37
  TRACK 97 AUDIO
    TITLE "0:"
    INDEX 01 02:12:32
  TRACK 98 AUDIO
    TITLE "22:cjc171_13599"
    INDEX 01 02:12:63
  TRACK 99 AUDIO
    TITLE "0:"
    INDEX 01 02:14:58
  TRACK 100 AUDIO
    TITLE "23:cjc171_13600"
    INDEX 01 02:15:03
  TRACK 101 AUDIO
    TITLE "0:"
    INDEX 01 02:16:73
  TRACK 102 AUDIO
    TITLE "19:cjc171_13601"
    INDEX 01 02:17:66
  TRACK 103 AUDIO
    TITLE "0:"
    INDEX 01 02:18:75
  TRACK 104 AUDIO
    TITLE "20:cjc171_13602"
    INDEX 01 02:19:40
  TRACK 105 AUDIO
    TITLE "0:"
    INDEX 01 02:21:07
  TRACK 106 AUDIO
    TITLE "21:cjc171_13603"
    INDEX 01 02:22:07
  TRACK 107 AUDIO
    TITLE "0:"
    INDEX 01 02:24:13
  TRACK 108 AUDIO
    TITLE "22:cjc171_13604"
    INDEX 01 02:24:52
  TRACK 109 AUDIO
    TITLE "0:"
    INDEX 01 02:26:26
  TRACK 110 AUDIO
    TITLE "23:cjc171_13605"
    INDEX 01 02:26:47
  TRACK 111 AUDIO
    TITLE "0:"
    INDEX 01 02:28:19
  TRACK 112 AUDIO
    TITLE "19:cjc171_13606"
    INDEX 01 02:29:20
  TRACK 113 AUDIO
    TITLE "0:"
    INDEX 01 02:30:31
  TRACK 114 AUDIO
    TITLE "20:cjc171_13607"
    INDEX 01 02:30:67
  TRACK 115 AUDIO
    TITLE "0:"
    INDEX 01 02:33:16
  TRACK 116 AUDIO
    TITLE "21:cjc171_13608"
    INDEX 01 02:34:16
  TRACK 117 AUDIO
    TITLE "0:"
    INDEX 01 02:36:14
  TRACK 118 AUDIO
    TITLE "22:cjc171_13609"
    INDEX 01 02:36:48
  TRACK 119 AUDIO
    TITLE "0:"
    INDEX 01 02:38:72
  TRACK 120 AUDIO
    TITLE "23:cjc171_13610"
    INDEX 01 02:39:17
  TRACK 121 AUDIO
    TITLE "0:"
    INDEX 01 02:41:43
  TRACK 122 AUDIO
    TITLE "19:cjc171_13611"
    INDEX 01 02:42:43
  TRACK 123 AUDIO
    TITLE "0:"
    INDEX 01 02:43:56
  TRACK 124 AUDIO
    TITLE "20:cjc171_13612"
    INDEX 01 02:44:20
  TRACK 125 AUDIO
    TITLE "0:"
    INDEX 01 02:47:10
  TRACK 126 AUDIO
    TITLE "21:cjc171_13613"
    INDEX 01 02:48:10
  TRACK 127 AUDIO
    TITLE "0:"
    INDEX 01 02:51:04
  TRACK 128 AUDIO
    TITLE "22:cjc171_13614"
    INDEX 01 02:51:41
  TRACK 129 AUDIO
    TITLE "0:"
    INDEX 01 02:54:08
  TRACK 130 AUDIO
    TITLE "23:cjc171_13615"
    INDEX 01 02:54:38
  TRACK 131 AUDIO
    TITLE "0:"
    INDEX 01 02:57:03
  TRACK 132 AUDIO
    TITLE "19:cjc171_13616"
    INDEX 01 02:58:08
  TRACK 133 AUDIO
    TITLE "0:"
    INDEX 01 02:59:27
  TRACK 134 AUDIO
    TITLE "20:cjc171_13617"
    INDEX 01 02:59:68
  TRACK 135 AUDIO
    TITLE "0:"
    INDEX 01 03:02:20
  TRACK 136 AUDIO
    TITLE "21:cjc171_13618"
    INDEX 01 03:03:21
  TRACK 137 AUDIO
    TITLE "0:"
    INDEX 01 03:04:73
  TRACK 138 AUDIO
    TITLE "22:cjc171_13619"
    INDEX 01 03:05:38
  TRACK 139 AUDIO
    TITLE "0:"
    INDEX 01 03:07:27
  TRACK 140 AUDIO
    TITLE "23:cjc171_13620"
    INDEX 01 03:07:56
  TRACK 141 AUDIO
    TITLE "0:"
    INDEX 01 03:09:43
  TRACK 142 AUDIO
    TITLE "19:cjc171_13621"
    INDEX 01 03:10:47
  TRACK 143 AUDIO
    TITLE "0:"
    INDEX 01 03:12:01
  TRACK 144 AUDIO
    TITLE "20:cjc171_13622"
    INDEX 01 03:12:40
  TRACK 145 AUDIO
    TITLE "0:"
    INDEX 01 03:13:55
  TRACK 146 AUDIO
    TITLE "21:cjc171_13623"
    INDEX 01 03:14:54
  TRACK 147 AUDIO
    TITLE "0:"
    INDEX 01 03:16:18
  TRACK 148 AUDIO
    TITLE "22:cjc171_13624"
    INDEX 01 03:16:57
  TRACK 149 AUDIO
    TITLE "0:"
    INDEX 01 03:18:46
  TRACK 150 AUDIO
    TITLE "23:cjc171_13625"
    INDEX 01 03:19:01
  TRACK 151 AUDIO
    TITLE "0:"
    INDEX 01 03:20:63
  TRACK 152 AUDIO
    TITLE "19:cjc171_13626"
    INDEX 01 03:21:68
  TRACK 153 AUDIO
    TITLE "0:"
    INDEX 01 03:23:28
  TRACK 154 AUDIO
    TITLE "20:cjc171_13627"
    INDEX 01 03:23:61
  TRACK 155 AUDIO
    TITLE "0:"
    INDEX 01 03:26:44
  TRACK 156 AUDIO
    TITLE "21:cjc171_13628"
    INDEX 01 03:27:39
  TRACK 157 AUDIO
    TITLE "0:"
    INDEX 01 03:29:66
  TRACK 158 AUDIO
    TITLE "22:cjc171_13629"
    INDEX 01 03:30:30
  TRACK 159 AUDIO
    TITLE "0:"
    INDEX 01 03:32:54
  TRACK 160 AUDIO
    TITLE "23:cjc171_13630"
    INDEX 01 03:33:10
  TRACK 161 AUDIO
    TITLE "0:"
    INDEX 01 03:35:31
  TRACK 162 AUDIO
    TITLE "19:cjc171_13631"
    INDEX 01 03:36:30
  TRACK 163 AUDIO
    TITLE "0:"
    INDEX 01 03:37:45
  TRACK 164 AUDIO
    TITLE "20:cjc171_13632"
    INDEX 01 03:38:08
  TRACK 165 AUDIO
    TITLE "0:"
    INDEX 01 03:40:50
  TRACK 166 AUDIO
    TITLE "21:cjc171_13633"
    INDEX 01 03:41:47
  TRACK 167 AUDIO
    TITLE "0:"
    INDEX 01 03:43:40
  TRACK 168 AUDIO
    TITLE "22:cjc171_13634"
    INDEX 01 03:44:04
  TRACK 169 AUDIO
    TITLE "0:"
    INDEX 01 03:46:05
  TRACK 170 AUDIO
    TITLE "23:cjc171_13635"
    INDEX 01 03:46:31
  TRACK 171 AUDIO
    TITLE "0:"
    INDEX 01 03:48:30
  TRACK 172 AUDIO
    TITLE "19:cjc171_13636"
    INDEX 01 03:49:25
  TRACK 173 AUDIO
    TITLE "0:"
    INDEX 01 03:50:38
  TRACK 174 AUDIO
    TITLE "20:cjc171_13637"
    INDEX 01 03:51:04
  TRACK 175 AUDIO
    TITLE "0:"
    INDEX 01 03:52:55
  TRACK 176 AUDIO
    TITLE "21:cjc171_13638"
    INDEX 01 03:53:54
  TRACK 177 AUDIO
    TITLE "0:"
    INDEX 01 03:55:73
  TRACK 178 AUDIO
    TITLE "22:cjc171_13639"
    INDEX 01 03:56:29
  TRACK 179 AUDIO
    TITLE "0:"
    INDEX 01 03:58:01
  TRACK 180 AUDIO
    TITLE "23:cjc171_13640"
    INDEX 01 03:58:22
  TRACK 181 AUDIO
    TITLE "0:"
    INDEX 01 03:59:69
  TRACK 182 AUDIO
    TITLE "19:cjc171_13641"
    INDEX 01 04:00:70
  TRACK 183 AUDIO
    TITLE "0:"
    INDEX 01 04:02:08
  TRACK 184 AUDIO
    TITLE "20:cjc171_13642"
    INDEX 01 04:02:47
  TRACK 185 AUDIO
    TITLE "0:"
    INDEX 01 04:04:17
  TRACK 186 AUDIO
    TITLE "21:cjc171_13643"
    INDEX 01 04:05:16
  TRACK 187 AUDIO
    TITLE "0:"
    INDEX 01 04:08:40
  TRACK 188 AUDIO
    TITLE "22:cjc171_13644"
    INDEX 01 04:09:04
  TRACK 189 AUDIO
    TITLE "0:"
    INDEX 01 04:11:72
  TRACK 190 AUDIO
    TITLE "23:cjc171_13645"
    INDEX 01 04:12:26
  TRACK 191 AUDIO
    TITLE "0:"
    INDEX 01 04:15:21
  TRACK 192 AUDIO
    TITLE "19:cjc171_13646"
    INDEX 01 04:16:24
  TRACK 193 AUDIO
    TITLE "0:"
    INDEX 01 04:17:45
  TRACK 194 AUDIO
    TITLE "20:cjc171_13647"
    INDEX 01 04:18:09
  TRACK 195 AUDIO
    TITLE "0:"
    INDEX 01 04:20:57
  TRACK 196 AUDIO
    TITLE "21:cjc171_13648"
    INDEX 01 04:21:57
  TRACK 197 AUDIO
    TITLE "0:"
    INDEX 01 04:23:42
  TRACK 198 AUDIO
    TITLE "22:cjc171_13649"
    INDEX 01 04:24:06
  TRACK 199 AUDIO
    TITLE "0:"
    INDEX 01 04:26:07
  TRACK 200 AUDIO
    TITLE "23:cjc171_13650"
    INDEX 01 04:26:36
  TRACK 201 AUDIO
    TITLE "0:"
    INDEX 01 04:28:37
  TRACK 202 AUDIO
    TITLE "19:cjc171_13651"
    INDEX 01 04:29:42
  TRACK 203 AUDIO
    TITLE "0:"
    INDEX 01 04:30:59
  TRACK 204 AUDIO
    TITLE "20:cjc171_13652"
    INDEX 01 04:31:22
  TRACK 205 AUDIO
    TITLE "0:"
    INDEX 01 04:34:38
  TRACK 206 AUDIO
    TITLE "21:cjc171_13653"
    INDEX 01 04:35:41
  TRACK 207 AUDIO
    TITLE "0:"
    INDEX 01 04:37:57
  TRACK 208 AUDIO
    TITLE "22:cjc171_13654"
    INDEX 01 04:38:22
  TRACK 209 AUDIO
    TITLE "0:"
    INDEX 01 04:40:32
  TRACK 210 AUDIO
    TITLE "23:cjc171_13655"
    INDEX 01 04:40:64
  TRACK 211 AUDIO
    TITLE "0:"
    INDEX 01 04:43:01
  TRACK 212 AUDIO
    TITLE "19:cjc171_13656"
    INDEX 01 04:44:01
  TRACK 213 AUDIO
    TITLE "0:"
    INDEX 01 04:45:33
  TRACK 214 AUDIO
    TITLE "20:cjc171_13657"
    INDEX 01 04:45:69
  TRACK 215 AUDIO
    TITLE "0:"
    INDEX 01 04:47:36
  TRACK 216 AUDIO
    TITLE "21:cjc171_13658"
    INDEX 01 04:48:36
  TRACK 217 AUDIO
    TITLE "0:"
    INDEX 01 04:50:43
  TRACK 218 AUDIO
    TITLE "22:cjc171_13659"
    INDEX 01 04:51:07
  TRACK 219 AUDIO
    TITLE "0:"
    INDEX 01 04:53:19
  TRACK 220 AUDIO
    TITLE "23:cjc171_13660"
    INDEX 01 04:53:45
  TRACK 221 AUDIO
    TITLE "0:"
    INDEX 01 04:55:55
  TRACK 222 AUDIO
    TITLE "19:cjc171_13661"
    INDEX 01 04:56:53
  TRACK 223 AUDIO
    TITLE "0:"
    INDEX 01 04:57:56
  TRACK 224 AUDIO
    TITLE "20:cjc171_13662"
    INDEX 01 04:58:17
  TRACK 225 AUDIO
    TITLE "0:"
    INDEX 01 04:59:39
  TRACK 226 AUDIO
    TITLE "21:cjc171_13663"
    INDEX 01 05:00:39
  TRACK 227 AUDIO
    TITLE "0:"
    INDEX 01 05:02:30
  TRACK 228 AUDIO
    TITLE "22:cjc171_13664"
    INDEX 01 05:02:63
  TRACK 229 AUDIO
    TITLE "0:"
    INDEX 01 05:05:36
  TRACK 230 AUDIO
    TITLE "23:cjc171_13665"
    INDEX 01 05:05:58
  TRACK 231 AUDIO
    TITLE "0:"
    INDEX 01 05:08:29
  TRACK 232 AUDIO
    TITLE "19:cjc171_13666"
    INDEX 01 05:09:24
  TRACK 233 AUDIO
    TITLE "0:"
    INDEX 01 05:10:30
  TRACK 234 AUDIO
    TITLE "20:cjc171_13667"
    INDEX 01 05:10:65
  TRACK 235 AUDIO
    TITLE "0:"
    INDEX 01 05:13:40
  TRACK 236 AUDIO
    TITLE "21:cjc171_13668"
    INDEX 01 05:14:39
  TRACK 237 AUDIO
    TITLE "0:"
    INDEX 01 05:16:75
  TRACK 238 AUDIO
    TITLE "22:cjc171_13669"
    INDEX 01 05:17:35
  TRACK 239 AUDIO
    TITLE "0:"
    INDEX 01 05:19:54
  TRACK 240 AUDIO
    TITLE "23:cjc171_13670"
    INDEX 01 05:20:01
  TRACK 241 AUDIO
    TITLE "0:"
    INDEX 01 05:22:15
  TRACK 242 AUDIO
    TITLE "19:cjc171_13671"
    INDEX 01 05:23:16
  TRACK 243 AUDIO
    TITLE "0:"
    INDEX 01 05:24:24
  TRACK 244 AUDIO
    TITLE "20:cjc171_13672"
    INDEX 01 05:24:65
  TRACK 245 AUDIO
    TITLE "0:"
    INDEX 01 05:27:10
  TRACK 246 AUDIO
    TITLE "21:cjc171_13673"
    INDEX 01 05:28:08
  TRACK 247 AUDIO
    TITLE "0:"
    INDEX 01 05:30:09
  TRACK 248 AUDIO
    TITLE "22:cjc171_13674"
    INDEX 01 05:30:48
  TRACK 249 AUDIO
    TITLE "0:"
    INDEX 01 05:32:33
  TRACK 250 AUDIO
    TITLE "23:cjc171_13675"
    INDEX 01 05:32:62
  TRACK 251 AUDIO
    TITLE "0:"
    INDEX 01 05:34:46
  TRACK 252 AUDIO
    TITLE "19:cjc171_13676"
    INDEX 01 05:35:49
  TRACK 253 AUDIO
    TITLE "0:"
    INDEX 01 05:36:60
  TRACK 254 AUDIO
    TITLE "20:cjc171_13677"
    INDEX 01 05:37:24
  TRACK 255 AUDIO
    TITLE "0:"
    INDEX 01 05:39:29
  TRACK 256 AUDIO
    TITLE "21:cjc171_13678"
    INDEX 01 05:40:29
  TRACK 257 AUDIO
    TITLE "0:"
    INDEX 01 05:41:57
  TRACK 258 AUDIO
    TITLE "22:cjc171_13679"
    INDEX 01 05:42:20
  TRACK 259 AUDIO
    TITLE "0:"
    INDEX 01 05:43:64
  TRACK 260 AUDIO
    TITLE "23:cjc171_13680"
    INDEX 01 05:44:19
  TRACK 261 AUDIO
    TITLE "0:"
    INDEX 01 05:45:63
  TRACK 262 AUDIO
    TITLE "19:cjc171_13681"
    INDEX 01 05:46:68
  TRACK 263 AUDIO
    TITLE "0:"
    INDEX 01 05:48:13
  TRACK 264 AUDIO
    TITLE "20:cjc171_13682"
    INDEX 01 05:48:52
  TRACK 265 AUDIO
    TITLE "0:"
    INDEX 01 05:51:46
  TRACK 266 AUDIO
    TITLE "21:cjc171_13683"
    INDEX 01 05:52:44
  TRACK 267 AUDIO
    TITLE "0:"
    INDEX 01 05:54:60
  TRACK 268 AUDIO
    TITLE "22:cjc171_13684"
    INDEX 01 05:55:24
  TRACK 269 AUDIO
    TITLE "0:"
    INDEX 01 05:57:31
  TRACK 270 AUDIO
    TITLE "23:cjc171_13685"
    INDEX 01 05:57:58
  TRACK 271 AUDIO
    TITLE "0:"
    INDEX 01 05:59:65
  TRACK 272 AUDIO
    TITLE "19:cjc171_13686"
    INDEX 01 06:00:63
  TRACK 273 AUDIO
    TITLE "0:"
    INDEX 01 06:02:05
  TRACK 274 AUDIO
    TITLE "20:cjc171_13687"
    INDEX 01 06:02:42
  TRACK 275 AUDIO
    TITLE "0:"
    INDEX 01 06:06:10
  TRACK 276 AUDIO
    TITLE "21:cjc171_13688"
    INDEX 01 06:07:04
  TRACK 277 AUDIO
    TITLE "0:"
    INDEX 01 06:09:11
  TRACK 278 AUDIO
    TITLE "22:cjc171_13689"
    INDEX 01 06:09:44
  TRACK 279 AUDIO
    TITLE "0:"
    INDEX 01 06:11:37
  TRACK 280 AUDIO
    TITLE "23:cjc171_13690"
    INDEX 01 06:11:63
  TRACK 281 AUDIO
    TITLE "0:"
    INDEX 01 06:13:57
  TRACK 282 AUDIO
    TITLE "19:cjc171_13691"
    INDEX 01 06:14:55
  TRACK 283 AUDIO
    TITLE "0:"
    INDEX 01 06:16:13
  TRACK 284 AUDIO
    TITLE "20:cjc171_13692"
    INDEX 01 06:16:50
  TRACK 285 AUDIO
    TITLE "0:"
    INDEX 01 06:19:33
  TRACK 286 AUDIO
    TITLE "21:cjc171_13693"
    INDEX 01 06:20:32
  TRACK 287 AUDIO
    TITLE "0:"
    INDEX 01 06:22:31
  TRACK 288 AUDIO
    TITLE "22:cjc171_13694"
    INDEX 01 06:22:66
  TRACK 289 AUDIO
    TITLE "0:"
    INDEX 01 06:25:16
  TRACK 290 AUDIO
    TITLE "23:cjc171_13695"
    INDEX 01 06:25:39
  TRACK 291 AUDIO
    TITLE "0:"
    INDEX 01 06:27:63
  TRACK 292 AUDIO
    TITLE "19:cjc171_13696"
    INDEX 01 06:28:61
  TRACK 293 AUDIO
    TITLE "0:"
    INDEX 01 06:29:68
  TRACK 294 AUDIO
    TITLE "20:cjc171_13697"
    INDEX 01 06:30:27
  TRACK 295 AUDIO
    TITLE "0:"
    INDEX 01 06:32:29
  TRACK 296 AUDIO
    TITLE "21:cjc171_13698"
    INDEX 01 06:33:37
  TRACK 297 AUDIO
    TITLE "0:"
    INDEX 01 06:34:73
  TRACK 298 AUDIO
    TITLE "22:cjc171_13699"
    INDEX 01 06:35:32
  TRACK 299 AUDIO
    TITLE "0:"
    INDEX 01 06:37:07
  TRACK 300 AUDIO
    TITLE "23:cjc171_13700"
    INDEX 01 06:37:29
  TRACK 301 AUDIO
    TITLE "0:"
    INDEX 01 06:39:04
